<?xml version="1.0" standalone="no"?><!DOCTYPE svg PUBLIC "-//W3C//DTD SVG 1.1//EN" "http://www.w3.org/Graphics/SVG/1.1/DTD/svg11.dtd"><svg class="icon" width="200px" height="200.00px" viewBox="0 0 1024 1024" version="1.1" xmlns="http://www.w3.org/2000/svg"><path fill="#21b351" d="M179.344 370.436c5.426 1.252 10.874 2.421 16.273 3.77 47.765 11.912 77.017 44.020 97.036 88.28-29.605 10.983-58.135 21.567-86.399 32.054-29.234-38.656-53.44-45.040-79.888-21.697-19.907 17.57-20.37 51.727-0.954 70.476 22.048 21.293 54.1 15.23 79.579-15.609 28.899 9.594 58.089 19.284 88.224 29.287-13.299 31.696-33.538 56.38-62.704 73.070-85.536 48.939-189.041-0.719-204.814-97.978-0.337-2.084-1.251-4.074-1.893-6.108 0-11.38 0-22.762 0-34.144 0.614-1.698 1.523-3.349 1.797-5.101 8.812-56.386 46.236-97.388 101.523-110.943 8.484-2.080 17.107-3.586 25.669-5.357 8.85 0.001 17.702 0.001 26.555 0.001zM417.076 499.119c3.038 0 4.557 1.725 4.557 5.179s-1.519 5.179-4.557 5.179h-20.1v53.517c0 3.453-1.675 5.179-5.024 5.179-3.038 0-4.557-1.725-4.557-5.179v-53.517h-34.825c-0.313 11.512-2.259 22.266-5.843 32.269-3.273 9.562-7.83 18.016-13.672 25.364-1.247 0.974-2.454 1.505-3.623 1.596-3.506-0.266-5.337-2.17-5.492-5.71 0-0.975 0.428-2.037 1.286-3.186 7.48-9.74 12.544-19.698 15.191-29.879 1.791-6.907 2.805-13.722 3.038-20.45h-22.787c-3.038 0-4.557-1.726-4.557-5.179s1.519-5.179 4.557-5.179h22.906v-34.794h-16.945c-3.038 0-4.557-1.859-4.557-5.577 0-3.54 1.519-5.311 4.557-5.311h85.428c3.038 0 4.557 1.772 4.557 5.311 0 3.718-1.519 5.577-4.557 5.577h-15.075v34.794h20.099zM352.685 464.326v34.794h34.709v-34.794h-34.709zM449.916 514.656c3.272 0.090 4.946 1.816 5.024 5.179 0 0.886-0.274 2.302-0.819 4.252-2.728 9.915-5.533 17.974-8.414 24.169-2.65 5.934-4.949 10.268-6.895 13.014-0.935 1.15-1.793 1.726-2.57 1.726-3.664 0-5.492-1.905-5.492-5.71 0-0.445 0.309-1.548 0.935-3.321 2.726-4.426 4.908-8.631 6.545-12.616 2.57-5.93 5.259-13.765 8.063-23.504 0.779-2.124 1.988-3.187 3.625-3.187zM439.866 480.527c0.935 0 1.83 0.486 2.688 1.461 3.74 3.632 7.246 7.792 10.518 12.483 0.31 0.975 0.468 1.859 0.468 2.655 0 3.452-1.675 5.179-5.024 5.179-0.935 0-1.831-0.353-2.688-1.063-3.35-4.336-6.857-8.498-10.518-12.483-0.624-1.24-0.935-2.079-0.935-2.523 0-3.805 1.83-5.71 5.492-5.71zM442.085 447.725c0.935 0 1.87 0.532 2.805 1.596 3.895 3.452 7.555 7.438 10.985 11.951 0.31 0.975 0.468 1.859 0.468 2.655 0 3.452-1.675 5.179-5.024 5.179-0.935 0-1.87-0.353-2.805-1.063-3.43-4.161-7.091-8.145-10.985-11.951-0.546-1.239-0.819-2.124-0.819-2.655 0-3.806 1.791-5.712 5.376-5.712zM534.29 450.381c2.805 0 4.207 1.55 4.207 4.647 0 3.101-1.403 4.649-4.207 4.649h-27.931c0.077 0.445 0.117 0.797 0.117 1.063 0 0.089-0.080 0.354-0.234 0.797-1.168 3.187-2.454 6.022-3.857 8.498h20.571c6.077 0 9.115 3.321 9.115 9.961v32.138c0 6.554-3.038 9.827-9.115 9.827h-13.672v33.73c0 7.97-4.441 11.951-13.323 11.951-1.948 0-4.52-0.71-7.713-2.123-2.415-0.885-3.623-2.612-3.623-5.18 0.077-3.632 1.441-5.531 4.089-5.71 0.234 0 0.623 0.089 1.168 0.266 3.116 1.241 5.142 1.859 6.077 1.859 2.492 0 3.739-1.063 3.739-3.187v-31.606h-14.139c-5.843 0-8.764-3.274-8.764-9.827v-32.138c0-6.639 2.922-9.961 8.764-9.961h5.96c0.31-0.708 0.739-1.549 1.286-2.523 1.791-2.301 3.389-4.912 4.792-7.834h-24.893c-2.103 0-3.156 1.418-3.156 4.252v34.66c0 9.916-0.624 19.389-1.87 28.418-0.857 6.554-2.338 13.412-4.441 20.583-1.559 4.959-3.118 9.030-4.675 12.219-1.247 2.478-2.61 3.718-4.089 3.718-2.883-0.266-4.402-1.993-4.557-5.179 0-0.532 0.233-1.507 0.7-2.922 1.791-4.161 3.273-8.188 4.441-12.085 1.791-5.753 3.155-11.951 4.089-18.591 1.168-7.791 1.753-16.512 1.753-26.162v-38.913c0-6.195 2.726-9.296 8.18-9.296h65.214zM483.221 529.265c3.038 0 4.557 1.373 4.557 4.117 0 1.063-0.156 2.257-0.468 3.586-2.805 9.295-6.739 17.795-11.803 25.496-1.013 1.68-2.534 2.523-4.557 2.523-3.35 0-5.024-1.374-5.024-4.118 0-1.24 0.116-2.437 0.351-3.585 5.609-7.791 9.893-16.114 12.854-24.967 0.468-2.033 1.83-3.054 4.089-3.054zM485.559 490.886h37.864v-7.304c0-2.743-1.247-4.117-3.74-4.117h-30.969c-2.103 0-3.155 1.373-3.155 4.117v7.304zM519.683 512.665c2.493 0 3.74-1.371 3.74-4.117v-8.898h-37.864v8.898c0 2.746 1.051 4.117 3.155 4.117h30.969zM522.954 529.796c0.855 0 1.908 0.31 3.155 0.93 2.179 3.452 4.167 6.728 5.96 9.827 2.103 3.542 4.675 8.765 7.713 15.67 0.31 0.974 0.468 1.993 0.468 3.056 0 3.098-1.519 4.647-4.557 4.647-1.403 0-2.61-0.313-3.623-0.93-2.727-6.374-5.066-11.375-7.012-15.006-1.559-3.098-3.35-6.242-5.376-9.428-0.857-1.24-1.286-2.436-1.286-3.586-0.001-3.452 1.518-5.179 4.557-5.179zM564.908 470.037h32.839v-18.061c0-3.452 1.556-5.179 4.675-5.179 3.272 0 4.907 1.725 4.907 5.179v18.061h32.955c7.867 0 11.804 4.339 11.804 13.014v37.847c0 8.679-3.935 13.014-11.804 13.014h-32.955v32.669c0 3.452-1.635 5.179-4.907 5.179-3.118 0-4.675-1.726-4.675-5.179v-32.67h-32.839c-7.558 0-11.335-4.336-11.335-13.014v-37.847c0-8.674 3.776-13.013 11.335-13.013zM597.748 523.555v-43.027h-30.5c-2.727 0-4.089 1.725-4.089 5.179v32.669c0 3.452 1.363 5.179 4.089 5.179h30.5zM637.949 523.555c3.038 0 4.557-1.726 4.557-5.179v-32.669c0-3.452-1.519-5.179-4.557-5.179h-30.62v43.027h30.62zM678.617 450.381h81.22c6.7 0 10.050 3.807 10.050 11.42v92.827c0 7.614-3.351 11.421-10.050 11.421h-81.22c-6.704 0-10.050-3.808-10.050-11.421v-92.827c0-7.612 3.349-11.42 10.050-11.42zM757.147 556.222c2.414 0 3.623-1.372 3.623-4.117v-87.781c0-2.743-1.208-4.117-3.623-4.117h-75.844c-2.415 0-3.623 1.373-3.623 4.117v87.781c0 2.744 1.207 4.117 3.623 4.117h75.844zM749.318 470.567c2.882 0.179 4.401 1.905 4.557 5.179-0.156 3.276-1.675 5.003-4.557 5.179h-25.477v19.788h23.723c2.805 0.090 4.324 1.816 4.557 5.179-0.233 3.276-1.753 5.003-4.557 5.179h-23.723v24.435h28.281c2.805 0.089 4.324 1.816 4.557 5.179-0.233 3.187-1.753 4.913-4.557 5.18h-64.859c-2.961-0.266-4.481-1.993-4.557-5.18 0.077-3.365 1.596-5.090 4.557-5.179h27.347v-24.435h-21.854c-2.96-0.177-4.479-1.904-4.557-5.179 0.077-3.365 1.597-5.090 4.557-5.179h21.854v-19.788h-25.009c-2.961-0.178-4.481-1.904-4.558-5.179 0.077-3.274 1.597-5.001 4.558-5.179h59.716zM736.113 514.124c1.402 0 2.764 0.354 4.089 1.063 2.103 1.506 3.817 2.878 5.142 4.117 1.402 1.328 2.881 2.922 4.439 4.783 0.31 1.151 0.468 2.348 0.468 3.585-0.313 2.481-1.675 3.852-4.089 4.118-1.635 0-2.844-0.353-3.62-1.063-1.481-1.681-2.884-3.099-4.208-4.252-1.325-1.149-2.96-2.478-4.908-3.983-0.624-1.681-0.935-3.055-0.935-4.117 0.468-2.301 1.675-3.718 3.625-4.252zM789.519 464.326h14.374c-0.469-1.329-0.857-2.435-1.169-3.321-0.545-1.417-1.132-2.877-1.753-4.382-0.935-1.239-1.402-2.435-1.402-3.586 0-3.54 1.519-5.312 4.557-5.312 0.855 0 1.908 0.354 3.155 1.063 0.937 1.683 1.755 3.276 2.454 4.783 0.855 1.772 1.869 4.339 3.038 7.703 0.31 0.975 0.468 1.991 0.468 3.055h10.518c5.765 0 8.647 2.257 8.647 6.772 0 0.975-0.819 3.276-2.454 6.907-3.038 6.819-7.053 13.635-12.037 20.45 0.155 0.089 0.272 0.133 0.35 0.133 2.882 3.718 5.259 7.039 7.13 9.961 1.869 3.187 3.894 6.95 6.077 11.287 0.31 1.24 0.468 2.481 0.468 3.718-0.313 2.481-1.675 3.851-4.089 4.117-1.559 0-2.766-0.352-3.623-1.063-2.026-4.161-3.972-7.745-5.843-10.754-1.091-1.859-2.338-3.718-3.739-5.577v53.252c-0.233 3.186-1.755 4.912-4.558 5.179-2.96-0.266-4.479-1.993-4.557-5.179v-49.932c-3.818 4.163-7.947 8.324-12.387 12.483-1.091 1.329-2.454 2.039-4.089 2.124-3.118-0.619-4.949-2.523-5.492-5.71 0-0.708 0.779-2.435 2.338-5.179 5.921-4.692 11.412-9.869 16.477-15.537 6.931-7.258 12.192-14.254 15.776-20.982 2.258-3.718 3.389-5.71 3.389-5.977h-32.022c-2.961-0.266-4.481-1.993-4.557-5.179 0.075-3.366 1.596-5.135 4.557-5.312zM880.322 482.519c3.038 0 4.557 1.726 4.557 5.179s-1.519 5.179-4.557 5.179h-16.361v60.158h23.253c3.038 0 4.557 1.773 4.557 5.312 0 3.718-1.519 5.577-4.557 5.577h-54.342c-3.038 0-4.557-1.859-4.557-5.577 0-3.54 1.519-5.312 4.557-5.312h20.571v-60.158h-16.010c-3.039 0-4.558-1.725-4.558-5.179s1.519-5.179 4.558-5.179h16.010v-29.083c0-3.806 1.674-5.712 5.024-5.712 3.661 0 5.492 1.906 5.492 5.712v29.083h16.361zM995.431 451.975c3.661 0 5.49 1.726 5.49 5.179s-1.831 5.179-5.49 5.179h-78.532c-2.415 0-3.623 1.373-3.623 4.117v85.124c0 2.746 1.207 4.117 3.623 4.117h81.687c3.662 0 5.492 1.726 5.492 5.179s-1.831 5.18-5.492 5.18h-84.492c-6.623 0-9.934-3.808-9.934-11.421v-91.232c0-7.613 3.311-11.421 9.934-11.421h81.335zM983.043 465.387c2.726 0.354 4.244 2.081 4.557 5.179 0 0.975-0.156 2.213-0.468 3.718-6.155 13.281-12.349 24.614-18.581 33.995 8.101 9.029 16.593 19.477 25.477 31.34 0.31 1.418 0.468 2.79 0.468 4.118-0.313 2.746-1.831 4.294-4.557 4.647-1.635 0-2.846-0.484-3.623-1.461-8.414-11.331-16.476-21.248-24.19-29.748-8.647 10.98-19.010 21.735-31.087 32.27-1.558 0.621-3.078 0.975-4.557 1.063-2.183-0.974-3.702-2.523-4.557-4.647 0-2.391 0.739-4.293 2.22-5.712 6.934-6.020 13.088-11.951 18.464-17.795 4.675-4.867 8.609-9.296 11.804-13.281-7.713-7.879-17.024-16.555-27.931-26.029-0.935-1.77-1.402-3.321-1.402-4.647 0.544-2.212 1.908-3.586 4.089-4.117 1.402 0 2.805 0.354 4.207 1.063 10.751 9.119 19.943 17.486 27.58 25.099 0.234-0.353 0.429-0.665 0.584-0.93 4.908-7.702 10.556-18.192 16.945-31.473 0.779-1.68 2.298-2.566 4.557-2.656zM320.477 416.604c0-4.907 1.37-8.78 4.11-11.618s6.457-4.258 11.148-4.258c4.46 0 7.956 1.366 10.49 4.098 2.535 2.731 3.802 6.506 3.802 11.322 0 4.693-1.353 8.48-4.057 11.363-2.704 2.884-6.33 4.325-10.88 4.325-4.443 0-7.988-1.396-10.638-4.189-2.651-2.794-3.975-6.475-3.975-11.042zM325.849 416.443c0 3.421 0.865 6.117 2.593 8.086 1.728 1.971 4.052 2.956 6.971 2.956 3.009 0 5.301-0.963 6.876-2.887 1.576-1.924 2.364-4.688 2.364-8.288 0-3.617-0.787-6.393-2.364-8.329s-3.869-2.901-6.876-2.901c-2.955 0-5.287 1.012-6.998 3.036s-2.564 4.799-2.564 8.326zM362.707 426.946v17.865h-5.266v-43.385h5.266v5.13h0.106c2.33-3.886 5.73-5.828 10.208-5.828 3.795 0 6.774 1.331 8.931 3.989 2.157 2.658 3.237 6.228 3.237 10.703 0 4.943-1.221 8.915-3.667 11.914-2.444 3.002-5.735 4.501-9.872 4.501-3.815 0-6.761-1.63-8.839-4.89h-0.106zM362.68 418.887c0 2.417 0.78 4.456 2.337 6.111 1.558 1.657 3.51 2.486 5.856 2.486 2.793 0 4.98-1.074 6.555-3.224 1.574-2.15 2.364-5.122 2.364-8.918 0-3.206-0.734-5.718-2.203-7.536-1.468-1.818-3.474-2.727-6.017-2.727-2.598 0-4.729 0.923-6.393 2.767s-2.498 4.209-2.498 7.092v3.95zM416.783 417.625h-20.792c0.090 3.17 0.958 5.62 2.605 7.347s3.949 2.592 6.904 2.592c3.331 0 6.385-1.065 9.161-3.197v4.702c-2.614 1.845-6.081 2.766-10.397 2.766-4.301 0-7.652-1.361-10.061-4.082s-3.612-6.502-3.612-11.336c0-4.55 1.319-8.299 3.963-11.255 2.641-2.955 5.924-4.432 9.845-4.432 3.886 0 6.922 1.249 9.109 3.748 2.186 2.498 3.277 5.995 3.277 10.491v2.657zM411.516 413.407c-0.017-2.687-0.655-4.763-1.907-6.232-1.254-1.468-3.019-2.203-5.292-2.203-2.096 0-3.908 0.78-5.439 2.338-1.531 1.558-2.494 3.591-2.887 6.097h15.525zM448.911 431.135h-5.238v-16.898c0-6.107-2.229-9.161-6.688-9.161-2.309 0-4.209 0.861-5.695 2.581-1.487 1.72-2.229 3.895-2.229 6.527v16.95h-5.266v-29.71h5.266v4.915h0.106c2.239-3.742 5.488-5.615 9.751-5.615 3.259 0 5.74 1.044 7.441 3.13 1.702 2.086 2.552 5.127 2.552 9.119v18.161zM472.308 424.717c2.651 1.917 5.507 2.874 8.569 2.874 4.101 0 6.151-1.342 6.151-4.028 0-1.145-0.448-2.091-1.342-2.834-0.895-0.743-2.713-1.624-5.454-2.647-3.294-1.324-5.435-2.637-6.421-3.936s-1.476-2.87-1.476-4.713c0-2.634 1.115-4.741 3.344-6.325s4.973-2.38 8.234-2.38c2.526 0 4.87 0.439 7.039 1.316v5.077c-2.221-1.434-4.738-2.15-7.548-2.15-1.683 0-3.055 0.369-4.11 1.101-1.057 0.734-1.584 1.702-1.584 2.901 0 1.182 0.38 2.104 1.141 2.766 0.763 0.664 2.45 1.515 5.062 2.552 3.314 1.236 5.553 2.515 6.715 3.842s1.747 2.965 1.747 4.915c0 2.723-1.115 4.866-3.344 6.432-2.229 1.568-5.117 2.351-8.663 2.351-3.081 0-5.768-0.582-8.060-1.747v-5.374zM497.454 416.604c0-4.907 1.37-8.78 4.11-11.618s6.457-4.258 11.148-4.258c4.46 0 7.956 1.366 10.49 4.098 2.535 2.731 3.802 6.506 3.802 11.322 0 4.693-1.353 8.48-4.057 11.363-2.704 2.884-6.33 4.325-10.88 4.325-4.443 0-7.988-1.396-10.638-4.189-2.651-2.794-3.975-6.475-3.975-11.042zM502.827 416.443c0 3.421 0.865 6.117 2.593 8.086 1.728 1.971 4.052 2.956 6.971 2.956 3.009 0 5.301-0.963 6.876-2.887 1.576-1.924 2.364-4.688 2.364-8.288 0-3.617-0.787-6.393-2.364-8.329s-3.869-2.901-6.876-2.901c-2.955 0-5.287 1.012-6.998 3.036s-2.564 4.799-2.564 8.326zM558.944 431.135h-5.293v-4.674h-0.106c-1.988 3.583-5.042 5.373-9.161 5.373-7.039 0-10.558-4.208-10.558-12.626v-17.785h5.212v17.004c0 6.036 2.309 9.055 6.929 9.055 2.294 0 4.146-0.847 5.561-2.54 1.413-1.692 2.12-3.827 2.12-6.407v-17.11h5.293v29.711zM584.25 406.637c-0.878-0.627-2.086-0.94-3.627-0.94-2.043 0-3.724 0.954-5.051 2.861-1.324 1.908-1.988 4.419-1.988 7.536v15.043h-5.266v-29.71h5.266v6.045h0.107c1.503-4.371 4.101-6.556 7.791-6.556 1.198 0 2.121 0.136 2.766 0.403v5.318zM609.071 429.793c-2.274 1.361-5.015 2.042-8.222 2.042-4.297 0-7.756-1.378-10.37-4.136-2.614-2.757-3.921-6.33-3.921-10.719 0-4.87 1.409-8.797 4.231-11.779 2.82-2.983 6.596-4.472 11.322-4.472 2.722 0 5.050 0.483 6.982 1.452v5.212c-2.097-1.541-4.424-2.31-6.982-2.31-3.009 0-5.459 1.044-7.348 3.13-1.889 2.086-2.834 4.866-2.834 8.342 0 3.421 0.89 6.097 2.673 8.031s4.185 2.901 7.211 2.901c2.56 0 4.981-0.841 7.255-2.526v4.838zM640.341 417.625h-20.792c0.089 3.17 0.958 5.62 2.605 7.347s3.95 2.592 6.906 2.592c3.331 0 6.385-1.065 9.161-3.197v4.702c-2.614 1.845-6.081 2.766-10.397 2.766-4.297 0-7.652-1.361-10.060-4.082-2.408-2.723-3.614-6.502-3.614-11.336 0-4.55 1.319-8.299 3.963-11.255 2.641-2.955 5.924-4.432 9.845-4.432 3.886 0 6.922 1.249 9.108 3.748 2.187 2.498 3.277 5.995 3.277 10.491v2.657zM635.075 413.407c-0.017-2.687-0.654-4.763-1.907-6.232s-3.019-2.203-5.292-2.203c-2.097 0-3.909 0.78-5.439 2.338-1.531 1.558-2.494 3.591-2.887 6.097h15.525zM684.155 429.793c-2.274 1.361-5.015 2.042-8.222 2.042-4.297 0-7.756-1.378-10.37-4.136-2.614-2.757-3.921-6.33-3.921-10.719 0-4.87 1.409-8.797 4.231-11.779 2.82-2.983 6.596-4.472 11.322-4.472 2.722 0 5.050 0.483 6.982 1.452v5.212c-2.097-1.541-4.424-2.31-6.982-2.31-3.009 0-5.459 1.044-7.348 3.13-1.889 2.086-2.834 4.866-2.834 8.342 0 3.421 0.89 6.097 2.673 8.031s4.185 2.901 7.211 2.901c2.56 0 4.981-0.841 7.255-2.526v4.838zM716.309 431.135h-5.238v-17.086c0-5.981-2.22-8.973-6.662-8.973-2.274 0-4.165 0.873-5.668 2.619-1.505 1.747-2.256 3.944-2.256 6.596v16.843h-5.266v-43.975h5.266v19.154h0.107c2.273-3.724 5.506-5.587 9.697-5.587 6.679 0 10.019 4.039 10.019 12.116v18.294zM724.451 390.95c0-0.931 0.317-1.715 0.953-2.351 0.635-0.635 1.419-0.953 2.351-0.953 0.948 0 1.75 0.314 2.403 0.94 0.654 0.628 0.981 1.417 0.981 2.364 0 0.931-0.328 1.707-0.981 2.324s-1.456 0.925-2.404 0.925c-0.949 0-1.737-0.307-2.364-0.927-0.627-0.619-0.939-1.391-0.939-2.323zM725.068 431.135v-29.71h5.264v29.71h-5.264zM764.853 431.135h-5.238v-16.898c0-6.107-2.229-9.161-6.689-9.161-2.309 0-4.209 0.861-5.694 2.581-1.487 1.72-2.229 3.895-2.229 6.527v16.95h-5.266v-29.71h5.266v4.915h0.107c2.239-3.742 5.488-5.615 9.75-5.615 3.261 0 5.74 1.044 7.442 3.13 1.702 2.086 2.552 5.127 2.552 9.119v18.161zM774.336 403.494c2.956-1.845 6.368-2.766 10.235-2.766 7.161 0 10.746 3.76 10.746 11.283v19.125h-5.212v-4.594h-0.135c-2.060 3.527-5.095 5.292-9.108 5.292-2.884 0-5.177-0.78-6.876-2.338-1.702-1.558-2.552-3.662-2.552-6.313 0-5.553 3.286-8.785 9.858-9.698l8.812-1.236c0-4.854-2.005-7.281-6.017-7.281-3.564 0-6.814 1.199-9.751 3.599v-5.076zM783.146 417.167c-2.437 0.322-4.116 0.931-5.037 1.826-0.923 0.896-1.385 2.15-1.385 3.76 0 1.414 0.501 2.569 1.505 3.467 1.001 0.896 2.33 1.342 3.974 1.342 2.293 0 4.181-0.805 5.669-2.417 1.487-1.613 2.229-3.636 2.229-6.073v-2.848l-6.958 0.941zM314.474 608.508c0-6.091 2.125-10.898 6.377-14.422 4.253-3.523 10.018-5.286 17.3-5.286 6.92 0 12.346 1.696 16.276 5.087 3.932 3.39 5.897 8.076 5.897 14.057 0 5.825-2.099 10.527-6.295 14.106s-9.824 5.37-16.882 5.37c-6.893 0-12.395-1.733-16.507-5.202-4.113-3.469-6.17-8.036-6.17-13.706zM322.812 608.306c0 4.249 1.34 7.593 4.023 10.039 2.682 2.447 6.288 3.668 10.818 3.668 4.669 0 8.226-1.195 10.673-3.585s3.668-5.82 3.668-10.287c0-4.491-1.222-7.937-3.668-10.339-2.446-2.401-6.002-3.601-10.673-3.601-4.587 0-8.205 1.257-10.859 3.77-2.654 2.512-3.982 5.958-3.982 10.337zM369.248 618.576c4.113 2.381 8.545 3.567 13.297 3.567 6.363 0 9.546-1.668 9.546-5.002 0-1.422-0.694-2.596-2.084-3.519-1.39-0.922-4.211-2.017-8.461-3.283-5.113-1.646-8.435-3.274-9.963-4.886-1.529-1.613-2.293-3.562-2.293-5.852 0-3.269 1.73-5.887 5.191-7.854s7.717-2.953 12.777-2.953c3.919 0 7.558 0.545 10.922 1.634v6.303c-3.445-1.779-7.35-2.668-11.714-2.668-2.612 0-4.739 0.455-6.377 1.367-1.639 0.913-2.458 2.113-2.458 3.601 0 1.467 0.589 2.612 1.772 3.435 1.182 0.823 3.8 1.88 7.858 3.169 5.141 1.533 8.614 3.123 10.421 4.769 1.806 1.645 2.708 3.681 2.708 6.102 0 3.38-1.729 6.041-5.19 7.987-3.459 1.946-7.94 2.918-13.443 2.918-4.781 0-8.949-0.723-12.506-2.168v-6.67zM443.196 624.88c-3.529 1.688-7.781 2.535-12.756 2.535-6.67 0-12.033-1.712-16.090-5.137-4.058-3.423-6.087-7.86-6.087-13.304 0-6.046 2.189-10.924 6.566-14.624 4.376-3.702 10.233-5.553 17.569-5.553 4.224 0 7.837 0.601 10.838 1.801v6.47c-3.251-1.912-6.864-2.869-10.838-2.869-4.668 0-8.47 1.296-11.401 3.885-2.933 2.592-4.399 6.042-4.399 10.356 0 4.249 1.383 7.569 4.149 9.97 2.765 2.401 6.496 3.601 11.193 3.601 3.973 0 7.726-1.045 11.254-3.135v6.003zM493.092 626.547h-8.128v-21.209c0-7.426-3.447-11.14-10.337-11.14-3.529 0-6.461 1.085-8.795 3.252s-3.502 4.896-3.502 8.188v20.91h-8.171v-54.591h8.171v23.777h0.166c3.529-4.624 8.545-6.938 15.049-6.938 10.365 0 15.548 5.013 15.548 15.040v22.71zM505.722 576.659c0-1.155 0.493-2.129 1.48-2.918 0.986-0.788 2.202-1.186 3.647-1.186 1.473 0 2.717 0.389 3.732 1.168 1.014 0.779 1.521 1.757 1.521 2.934 0 1.156-0.508 2.118-1.521 2.885-1.014 0.767-2.257 1.15-3.732 1.15s-2.696-0.384-3.668-1.15c-0.972-0.768-1.458-1.729-1.458-2.885zM506.683 626.547v-36.882h8.171v36.882h-8.171zM568.417 626.547h-8.128v-20.976c0-7.58-3.46-11.371-10.379-11.371-3.586 0-6.531 1.067-8.837 3.202-2.307 2.135-3.46 4.836-3.46 8.104v21.042h-8.171v-36.882h8.171v6.102h0.166c3.473-4.646 8.518-6.97 15.131-6.97 5.058 0 8.907 1.295 11.548 3.885s3.962 6.365 3.962 11.321v22.543zM583.132 592.233c4.587-2.29 9.881-3.435 15.882-3.435 11.115 0 16.674 4.669 16.674 14.006v23.745h-8.087v-5.702h-0.207c-3.197 4.379-7.907 6.57-14.131 6.57-4.474 0-8.031-0.967-10.673-2.901s-3.959-4.546-3.959-7.837c0-6.892 5.099-10.903 15.299-12.038l13.672-1.533c0-6.027-3.114-9.037-9.334-9.037-5.531 0-10.575 1.49-15.132 4.469v-6.304zM596.805 609.208c-3.779 0.399-6.386 1.155-7.815 2.267-1.431 1.111-2.148 2.667-2.148 4.669 0 1.757 0.778 3.189 2.335 4.303 1.555 1.112 3.612 1.668 6.17 1.668 3.558 0 6.49-1 8.795-3.003s3.459-4.513 3.459-7.537v-3.536l-10.795 1.168zM626.902 623.113c0-1.2 0.514-2.212 1.542-3.034 1.029-0.823 2.306-1.235 3.835-1.235 1.555 0 2.849 0.418 3.876 1.251s1.545 1.839 1.545 3.019c0 1.156-0.516 2.151-1.545 2.984s-2.335 1.251-3.919 1.251c-1.529 0-2.8-0.418-3.814-1.251-1.014-0.832-1.52-1.826-1.52-2.983zM688.762 626.547h-8.129v-20.976c0-7.58-3.459-11.371-10.379-11.371-3.585 0-6.53 1.067-8.837 3.202s-3.459 4.836-3.459 8.104v21.042h-8.172v-36.882h8.172v6.102h0.165c3.473-4.646 8.518-6.97 15.132-6.97 5.057 0 8.907 1.295 11.548 3.885s3.962 6.365 3.962 11.321v22.543zM739.952 609.775h-32.264c0.139 3.935 1.488 6.975 4.043 9.119 2.556 2.148 6.128 3.219 10.714 3.219 5.168 0 9.905-1.322 14.215-3.969v5.837c-4.059 2.291-9.435 3.435-16.132 3.435-6.67 0-11.874-1.688-15.61-5.069-3.738-3.38-5.607-8.071-5.607-14.073 0-5.645 2.050-10.304 6.147-13.972 4.099-3.668 9.189-5.503 15.276-5.503 6.031 0 10.741 1.551 14.131 4.652s5.087 7.442 5.087 13.023v3.301zM731.781 604.539c-0.029-3.334-1.014-5.914-2.959-7.737-1.947-1.822-4.684-2.735-8.213-2.735-3.252 0-6.064 0.967-8.441 2.901s-3.87 4.458-4.481 7.57h24.095zM772.964 626.18c-1.779 0.779-4.182 1.167-7.21 1.167-8.254 0-12.382-3.657-12.382-10.972v-21.309h-7.92v-5.404h7.92v-8.871l8.129-2.067v10.937h11.463v5.404h-11.463v20.143c0 2.423 0.514 4.159 1.542 5.202s2.738 1.568 5.128 1.568c1.833 0 3.433-0.412 4.793-1.235v5.436z" /></svg>